<?xml version="1.0" encoding="utf-8"?>
<!-- Generator: Adobe Illustrator 16.0.0, SVG Export Plug-In . SVG Version: 6.00 Build 0)  -->
<!DOCTYPE svg PUBLIC "-//W3C//DTD SVG 1.1//EN" "http://www.w3.org/Graphics/SVG/1.1/DTD/svg11.dtd">
<svg version="1.1" id="Layer_1" xmlns="http://www.w3.org/2000/svg" xmlns:xlink="http://www.w3.org/1999/xlink" x="0px" y="0px"
	 width="2763px" height="1115px" viewBox="0 0 2763 1115" enable-background="new 0 0 2763 1115" xml:space="preserve">
<g>
	<polygon fill="#F2F2F2" stroke="#999999" stroke-miterlimit="10" points="2158.025,979.315 2425.067,712.273 2425.067,830.959 
		2158.025,1098 	"/>
	<path fill="#587ABC" d="M2431.773,780.898c148.07-143.463,244.265-218.579,272.792-378.515
		c33.571-188.216-74.742-348.309-253.89-384.958c-144.62-29.585-263.71,59.973-263.71,59.973l-6.413,88.704
		c0,0,107.201-111.043,255.769-88.676c154.686,23.289,241.693,167.443,214.11,322.091
		c-23.438,131.41-96.604,188.982-218.266,306.855L2431.773,780.898z"/>
	<path fill="#F2F2F2" stroke="#808080" stroke-miterlimit="10" d="M2158.077,967.3c0,0-24.114-196.028-75.469-446.207
		c0,0-62.211-188.704,89.741-337.08c0,0,115.816-122.218,262.264-97.986c146.447,24.236,233.353,159.709,206.101,312.498
		c-23.156,129.833-89.693,180.172-209.894,296.63C2313.968,808.37,2284.563,839.835,2158.077,967.3z M2450.64,239.64
		c-56.74-29.943-128.521-1.852-169.602,60.327c-40.393,61.13-21.671,138.324,35.07,168.266s136.207,4.959,170.405-59.842
		C2520.705,343.589,2507.382,269.579,2450.64,239.64z"/>
	<polygon fill="#808080" points="2179.455,934.859 2395.055,718.867 2277.535,718.867 2306.915,748.245 2173.402,883.425 	"/>
	<polygon fill="#CCCCCC" points="2395.396,752.019 2180.672,967.248 2288.623,957.683 2264.027,933.086 2395.396,800.257 	"/>
</g>
<path fill="#CCCCCC" d="M2769,891C1417.037,1115,1,891,1,891v226h2768V891z"/>
</svg>
